<svg width="16" height="16" viewBox="0 0 491 517" fill="none" xmlns="http://www.w3.org/2000/svg">
<path d="M245.5 176.5L70 0.5H0L245.5 251.5L491 0L421.5 0.5L245.5 176.5Z" fill="#00D0FF"/>
<path d="M245.5 292L0 46.5V117.5L245.5 363L491 117.5V46.5L245.5 292Z" fill="#00D0FF"/>
<path d="M447.5 210L491 166.5V516.5H258.5L305.5 469.5H447.5V210Z" fill="#00D0FF"/>
<path d="M43.5 210L0 166.5V516.5H234.5L187.5 469.5H43.5V210Z" fill="#00D0FF"/>
<path d="M81 245.5L245.5 410L410 245.5V313.5L245.5 478L81 313.5V245.5Z" fill="#00D0FF"/>
<path d="M206 88.5H286.5L246.25 128.75L206 88.5Z" fill="#00D0FF"/>
<path d="M325 51H168.5L119.5 0H376L325 51Z" fill="#00D0FF"/>
<path d="M155.5 435H81V360.5L155.5 435Z" fill="#00D0FF"/>
<path d="M410 435H338.5L410 363V435Z" fill="#00D0FF"/>
</svg>
