<svg width="16" height="16" viewBox="0 0 594 594" fill="none" xmlns="http://www.w3.org/2000/svg">
<path fill-rule="evenodd" clip-rule="evenodd" d="M352.994 402.501C353.943 393.442 357.065 385.029 361.829 377.793L464 479.944L566.246 377.718C571.018 384.94 574.152 393.34 575.119 402.388L464 513.485L352.994 402.501ZM575.438 425.218L559.446 441.206V558.805C569.336 548.754 575.438 534.965 575.438 519.75V425.218ZM553.828 563.797C544.409 571.094 532.587 575.438 519.75 575.438H480.707L492.35 563.797H553.828ZM448.238 575.438H408.375C395.538 575.438 383.716 571.094 374.297 563.797H436.595L448.238 575.438ZM368.554 558.678C358.738 548.638 352.688 534.901 352.688 519.75V425.343L368.554 441.206V558.678ZM556.255 366.321L464 460.811L371.703 366.466C377.907 361.033 385.327 356.956 393.502 354.696L464 425.38L534.682 354.712C542.761 356.955 550.1 360.974 556.255 366.321ZM414.735 352.688H514.972L501.564 366.093H427.617L414.735 352.688ZM464 535.688L386.273 457.977V490.101L464 567.812L541.727 490.101V457.977L464 535.688ZM445.336 383.808H483.373L464.354 402.823L445.336 383.808ZM421.475 547.499H386.273V512.304L421.475 547.499ZM507.943 547.499H541.727V513.485L507.943 547.499Z" fill="#00D0FF"/>
<path fill-rule="evenodd" clip-rule="evenodd" d="M37.125 143.55C37.125 105.277 66.2124 74.25 102.094 74.25H224.169C233.84 74.25 243.128 78.023 250.059 84.7664L315.562 148.5H482.625C523.633 148.5 556.875 181.743 556.875 222.75V303.338C545.262 299.233 532.766 297 519.75 297H408.375C346.864 297 297 346.864 297 408.375V519.75H102.094C66.2124 519.75 37.125 488.725 37.125 450.449V143.55Z" fill="#EBECF0"/>
<path fill-rule="evenodd" clip-rule="evenodd" d="M289.673 175.109L300.482 185.625H315.562H482.625C503.129 185.625 519.75 202.247 519.75 222.75V297C532.766 297 545.262 299.233 556.875 303.338V222.75C556.875 181.743 523.633 148.5 482.625 148.5H315.562L250.059 84.7664C243.128 78.023 233.84 74.25 224.169 74.25H102.094C66.2124 74.25 37.125 105.277 37.125 143.55V450.449C37.125 488.725 66.2124 519.75 102.094 519.75H297V482.625H102.094C88.9366 482.625 74.25 470.515 74.25 450.449V143.55C74.25 123.487 88.9366 111.375 102.094 111.375H224.169L289.673 175.109Z" fill="#6C707E"/>
</svg>
